<svg width="36" height="36" xmlns="http://www.w3.org/2000/svg">

 <g>
  <title>background</title>
  <rect fill="none" id="canvas_background" height="38" width="38" y="-1" x="-1"/>
 </g>
 <g>
  <title>Layer 1</title>
  <path id="svg_1" fill="#E4E4E4" d="m32.065365,12.955405l-10.9072,-10.90719c-1.831,-1.83096 -4.7996,-1.83096 -6.6305,0l-10.59303,10.59309l0,22.6837l10.93973,0l0,-9.3769c0,-1.7263 1.3993,-3.1257 3.1256,-3.1257c1.7263,0 3.1257,1.3994 3.1257,3.1257l0,9.3769l10.9397,0l0,-22.3696zm-15.3275,-8.69704l-9.67759,9.67754l0,18.2635l4.68845,0l0,-6.2513c0,-3.4524 2.79874,-6.2513 6.25124,-6.2513c3.4524,0 6.2513,2.7989 6.2513,6.2513l0,6.2513l4.6885,0l0,-17.9493l-9.9918,-9.99174c-0.6102,-0.61031 -1.5998,-0.61031 -2.2101,0z" clip-rule="evenodd" fill-rule="evenodd"/>
 </g>
</svg>