<svg width="36" height="36" viewBox="0 0 36 36" fill="none" xmlns="http://www.w3.org/2000/svg">
<path fill-rule="evenodd" clip-rule="evenodd" d="M26.927 24.3391C31.4073 18.5852 31.0025 10.2607 25.7131 4.97124C19.9854 -0.756445 10.6989 -0.756445 4.97126 4.97124C-0.756441 10.6989 -0.756441 19.9853 4.97126 25.713C10.2608 31.0026 18.5853 31.4072 24.3392 26.9271C24.364 26.9551 24.3898 26.9826 24.4166 27.0094L32.1949 34.7875C32.9108 35.5036 34.0717 35.5036 34.7876 34.7875C35.5035 34.0716 35.5035 32.9109 34.7876 32.1948L27.0095 24.4167C26.9825 24.3899 26.955 24.3641 26.927 24.3391ZM23.1202 7.56398C27.4161 11.8597 27.4161 18.8245 23.1202 23.1203C18.8246 27.416 11.8597 27.416 7.56398 23.1203C3.2682 18.8245 3.2682 11.8597 7.56398 7.56398C11.8597 3.2682 18.8246 3.2682 23.1202 7.56398Z" fill="#E4E4E4"/>
</svg>
